<svg viewBox="0 0 765.77 139.2" xmlns="http://www.w3.org/2000/svg" data-name="Layer 1" id="Layer_1">
  <defs>
    <style>
      .cls-1 {
        fill: #de1f26;
      }
    </style>
  </defs>
  <path d="M131.9,72.74c0-36.42-29.52-65.95-65.94-65.96C29.54,6.77,0,36.3,0,72.72c0,36.41,29.49,65.93,65.9,65.96h37.55v-21.17h-37.48c-24.73,0-44.77-20.04-44.77-44.77,0-24.73,20.04-44.77,44.77-44.77,24.73,0,44.77,20.04,44.77,44.77v65.86l21.18.05-.02-65.91Z" class="cls-1"></path>
  <path d="M77.59,60.6c-6.71-6.45-17.38-6.24-23.82.48-6.45,6.71-6.24,17.38.48,23.82,3.13,3.01,7.31,4.7,11.66,4.7h25.59l12,20.7h-37.59c-20.74,0-37.55-16.81-37.56-37.54,0-20.74,16.81-37.55,37.54-37.56,8.9,0,17.52,3.16,24.3,8.92l-12.6,16.48Z" class="cls-1"></path>
  <path d="M146.9,139.2h29.41l14.81-25.6h65.12l14.77,25.58h29.42L223.68,6.27l-76.78,132.93ZM205.78,88.2l17.86-30.94,17.87,30.94h-35.73Z" class="cls-1"></path>
  <polygon points="535.58 113.74 535.58 88.21 590.86 88.21 590.86 62.75 535.58 62.75 535.58 37.23 590.71 37.23 605.4 11.77 535.58 11.77 510.12 11.77 510.12 37.23 510.12 62.75 510.12 88.21 510.12 113.74 510.12 139.2 535.58 139.2 611.82 139.2 611.82 139.18 597.13 113.74 535.58 113.74" class="cls-1"></polygon>
  <polygon points="709.51 11.77 709.51 106.08 655.06 11.77 643.64 11.77 625.63 11.77 618.19 11.77 618.19 139.2 643.64 139.2 643.64 42.98 699.22 139.2 709.51 139.2 728.64 139.2 734.97 139.2 734.97 11.77 709.51 11.77" class="cls-1"></polygon>
  <polygon points="332.26 113.74 332.26 33.94 332.24 33.9 332.24 11.77 332.05 11.77 319.36 11.77 306.79 11.77 306.79 44.48 306.79 113.74 306.79 139.2 332.05 139.2 332.26 139.2 369.16 139.2 402.09 139.2 387.39 113.74 332.26 113.74" class="cls-1"></polygon>
  <polygon points="433.92 113.74 433.92 33.94 433.9 33.9 433.9 11.77 433.71 11.77 421.03 11.77 408.46 11.77 408.46 44.48 408.46 113.74 408.46 139.2 433.71 139.2 433.92 139.2 470.82 139.2 503.76 139.2 489.05 113.74 433.92 113.74" class="cls-1"></polygon>
  <path d="M749.32,5.77h5.58c2.85,0,4.87,1.2,4.87,3.92.08,1.61-.89,3.09-2.4,3.66l2.78,4h-3.79l-2.34-3.47h-1.42v3.47h-3.28V5.77ZM754.68,11.33c1.14,0,1.77-.57,1.77-1.39s-.63-1.34-1.77-1.34h-2.08v2.78l2.08-.05Z" class="cls-1"></path>
  <path d="M754.1,23.6c-6.39.06-11.61-5.08-11.67-11.47,0-.09,0-.18,0-.27-.05-6.5,5.17-11.8,11.67-11.86,6.4-.05,11.62,5.09,11.67,11.49,0,.08,0,.17,0,.25.06,6.49-5.16,11.8-11.66,11.86,0,0,0,0-.01,0ZM754.1,1.5c-5.64.04-10.18,4.65-10.15,10.29-.11,5.58,4.32,10.19,9.9,10.3.08,0,.17,0,.25,0,5.65-.04,10.19-4.65,10.16-10.3.09-5.58-4.35-10.17-9.93-10.27-.08,0-.15,0-.23,0v-.02Z" class="cls-1"></path>
</svg>